<?xml version="1.0" encoding="UTF-8"?><svg id="Layer_1" xmlns="http://www.w3.org/2000/svg" viewBox="0 0 145.58 32.2"><defs><style>.cls-1{fill:#fff;}.cls-1,.cls-2{stroke:#e6332a;stroke-miterlimit:10;stroke-width:.25px;}.cls-3{fill:#2d2e83;}.cls-4{fill:#312783;}.cls-2,.cls-5{fill:#e6332a;}</style></defs><path class="cls-2" d="M4.18,9.57c.1.47,5.85.87,9.03-2.58,1.59-1.72,2.29-4.13,1.96-4.35-.28-.18-1.23,1.3-2.97,2.82-3.98,3.5-8.11,3.7-8.02,4.1Z"/><path class="cls-4" d="M10.95,7.78l-1.59.62v13.94h4.34l1.62-4.72h2.16v6.73l-1.42,1.62H4.04l-2.04-.77v-2.04l1.3-.56v-14.26l-1.3-.56v-2.04l1.74-.77h5.17l2.04.77v2.04Z"/><path class="cls-4" d="M26.45,26.06h-2.48c-3.57,0-6.35-2.92-6.35-6.82v-2.63c0-3.87,2.72-6.79,6.35-6.79h2.48c3.63,0,6.35,2.95,6.35,6.79v2.63c0,3.9-2.78,6.82-6.35,6.82ZM27.24,20.24v-4.61c0-1.89-.41-2.33-2.04-2.33-1.71,0-2.04.53-2.04,2.33v4.61c0,1.8.32,2.33,2.04,2.33,1.62,0,2.04-.47,2.04-2.33Z"/><path class="cls-4" d="M41.95,26.06h-2.48c-3.57,0-6.35-2.92-6.35-6.82v-2.63c0-3.87,2.72-6.79,6.35-6.79h2.48c3.63,0,6.35,2.95,6.35,6.79v2.63c0,3.9-2.78,6.82-6.35,6.82ZM42.74,20.24v-4.61c0-1.89-.41-2.33-2.04-2.33-1.71,0-2.04.53-2.04,2.33v4.61c0,1.8.32,2.33,2.04,2.33,1.62,0,2.04-.47,2.04-2.33Z"/><path class="cls-4" d="M55.03,22.6l.89.56v2.04l-1.33.77h-4.55l-1.62-.77v-2.04l1.18-.56v-14.53l-1.18-.56v-2.3l1.92-.77h3.57l1.12,1.62v9.86l5.23-5.99h2.04l1.62.89v2.04l-2.01.8-2.07,2.13,4.13,7,1.09.38v2.04l-1.62.77h-4.69l-1.48-.77v-2.04l.71-.38-1.77-3.63-1.18,1.36v2.1Z"/><path class="cls-4" d="M71.09,14.57l1.65,1.06v2.54l-1.65,1.06h-5.2l-1.65-1.06v-2.54l1.65-1.06h5.2Z"/><path class="cls-4" d="M91.52,12.15v6.64c0,4.49-2.69,7.17-7,7.17h-9.24l-2.04-.77v-2.04l1.3-.56v-14.26l-1.3-.56v-2.04l2.04-.77h9.24c4.31,0,7,2.72,7,7.17ZM80.59,22.34h2.19c1.86,0,2.54-.59,2.54-2.89v-7.85c0-2.3-.68-2.98-2.54-2.98h-2.19v13.73Z"/><path class="cls-4" d="M100.11,23.16v2.04l-1.62.77h-5.14l-1.62-.77v-2.04l1.48-.56v-9.04l-1.48-.56v-2.18l4.63-.89h2.27v12.67l1.48.56ZM96.18,8.81h-.77c-1.45,0-2.57-.92-2.57-2.48v-.29c0-1.56,1.09-2.48,2.57-2.48h.77c1.48,0,2.57.92,2.57,2.48v.29c0,1.56-1.12,2.48-2.57,2.48Z"/><path class="cls-4" d="M105.1,17.2c2.24-.38,3.34-.5,3.34-1.98v-1c0-.92-.35-1.12-1.33-1.12s-1.3.29-1.33,2.07c0,.21-.41.24-2.27.24-2.21,0-2.66-.18-2.66-.41,0-3.31,1.8-5.29,6.38-5.29,4.31,0,6.64,1.39,6.64,5.76v7.15l1.18.56v2.04l-1.68.77h-3.69l-.97-1.65c-.86,1.24-1.92,1.95-4.07,1.95-2.63,0-4.67-.71-4.67-3.78v-1.06c0-3.04,2.86-3.84,5.14-4.22ZM106.6,19.5c-1,.21-1.33.59-1.33,1.59v.41c0,.83.47,1.24,1.39,1.24.68,0,1.18-.18,1.77-.62v-3.34c-.35.29-.86.5-1.83.71Z"/><path class="cls-4" d="M129.54,15.57c-.12.86-1.33,2.07-3.16,2.07-1.51,0-2.75-.77-2.75-2.27,0-1.18.65-1.54.65-1.83,0-.15-.12-.35-.47-.35-1.39,0-2.24,1.18-2.24,3.1v6.32l1.54.56v2.04l-1.62.77h-4.9l-1.62-.77v-2.04l1.18-.56v-9.04l-1.18-.56v-2.3l1.92-.77h3.45l.86,1.95c.59-1.21,1.98-2.18,3.87-2.18,2.66,0,4.13,1.54,3.84,3.9-.24,1.92.77,1.06.65,1.98Z"/><path class="cls-4" d="M129.93,13.33l-1.12-.59v-2.04l1.62-.77h4.9l1.62.77v2.04l-1.15.59,2.57,6.35,2.21-6.35-1.12-.59v-2.04l1.62-.77h2.86l1.62.77v2.04l-1.24.59-5.14,13.82c-1.51,4.28-3.34,5.05-5.82,5.05-3.43,0-4.87-2.16-4.87-4.16s1.24-3.25,2.83-3.25c1.24,0,2.19.71,2.19,1.98,0,1.48-1.45,1.54-1.45,2.07,0,.38.24.74,1.09.74,1.15,0,1.8-.62,2.16-1.71l.41-1.21-5.82-13.32Z"/><path class="cls-5" d="M8.95,7.78l-1.59.62v13.94h4.34l1.62-4.72h2.16v6.73l-1.42,1.62H2.04l-2.04-.77v-2.04l1.3-.56v-14.26l-1.3-.56v-2.04l1.74-.77h5.17l2.04.77v2.04Z"/><path class="cls-5" d="M24.45,26.06h-2.48c-3.57,0-6.35-2.92-6.35-6.82v-2.63c0-3.87,2.72-6.79,6.35-6.79h2.48c3.63,0,6.35,2.95,6.35,6.79v2.63c0,3.9-2.78,6.82-6.35,6.82ZM25.24,20.24v-4.61c0-1.89-.41-2.33-2.04-2.33-1.71,0-2.04.53-2.04,2.33v4.61c0,1.8.32,2.33,2.04,2.33,1.62,0,2.04-.47,2.04-2.33Z"/><path class="cls-5" d="M39.95,26.06h-2.48c-3.57,0-6.35-2.92-6.35-6.82v-2.63c0-3.87,2.72-6.79,6.35-6.79h2.48c3.63,0,6.35,2.95,6.35,6.79v2.63c0,3.9-2.78,6.82-6.35,6.82ZM40.74,20.24v-4.61c0-1.89-.41-2.33-2.04-2.33-1.71,0-2.04.53-2.04,2.33v4.61c0,1.8.32,2.33,2.04,2.33,1.62,0,2.04-.47,2.04-2.33Z"/><path class="cls-5" d="M53.03,22.6l.89.56v2.04l-1.33.77h-4.55l-1.62-.77v-2.04l1.18-.56v-14.53l-1.18-.56v-2.3l1.92-.77h3.57l1.12,1.62v9.86l5.23-5.99h2.04l1.62.89v2.04l-2.01.8-2.07,2.13,4.13,7,1.09.38v2.04l-1.62.77h-4.69l-1.48-.77v-2.04l.71-.38-1.77-3.63-1.18,1.36v2.1Z"/><path class="cls-5" d="M69.09,14.57l1.65,1.06v2.54l-1.65,1.06h-5.2l-1.65-1.06v-2.54l1.65-1.06h5.2Z"/><path class="cls-5" d="M89.52,12.15v6.64c0,4.49-2.69,7.17-7,7.17h-9.24l-2.04-.77v-2.04l1.3-.56v-14.26l-1.3-.56v-2.04l2.04-.77h9.24c4.31,0,7,2.72,7,7.17ZM78.59,22.34h2.19c1.86,0,2.54-.59,2.54-2.89v-7.85c0-2.3-.68-2.98-2.54-2.98h-2.19v13.73Z"/><path class="cls-5" d="M98.11,23.16v2.04l-1.62.77h-5.14l-1.62-.77v-2.04l1.48-.56v-9.04l-1.48-.56v-2.18l4.63-.89h2.27v12.67l1.48.56ZM94.18,8.81h-.77c-1.45,0-2.57-.92-2.57-2.48v-.29c0-1.56,1.09-2.48,2.57-2.48h.77c1.48,0,2.57.92,2.57,2.48v.29c0,1.56-1.12,2.48-2.57,2.48Z"/><path class="cls-5" d="M103.1,17.2c2.24-.38,3.34-.5,3.34-1.98v-1c0-.92-.35-1.12-1.33-1.12s-1.3.29-1.33,2.07c0,.21-.41.24-2.27.24-2.21,0-2.66-.18-2.66-.41,0-3.31,1.8-5.29,6.38-5.29,4.31,0,6.64,1.39,6.64,5.76v7.15l1.18.56v2.04l-1.68.77h-3.69l-.97-1.65c-.86,1.24-1.92,1.95-4.07,1.95-2.63,0-4.67-.71-4.67-3.78v-1.06c0-3.04,2.86-3.84,5.14-4.22ZM104.6,19.5c-1,.21-1.33.59-1.33,1.59v.41c0,.83.47,1.24,1.39,1.24.68,0,1.18-.18,1.77-.62v-3.34c-.35.29-.86.5-1.83.71Z"/><path class="cls-5" d="M127.54,15.57c-.12.86-1.33,2.07-3.16,2.07-1.51,0-2.75-.77-2.75-2.27,0-1.18.65-1.54.65-1.83,0-.15-.12-.35-.47-.35-1.39,0-2.24,1.18-2.24,3.1v6.32l1.54.56v2.04l-1.62.77h-4.9l-1.62-.77v-2.04l1.18-.56v-9.04l-1.18-.56v-2.3l1.92-.77h3.45l.86,1.95c.59-1.21,1.98-2.18,3.87-2.18,2.66,0,4.13,1.54,3.84,3.9-.24,1.92.77,1.06.65,1.98Z"/><path class="cls-5" d="M127.93,13.33l-1.12-.59v-2.04l1.62-.77h4.9l1.62.77v2.04l-1.15.59,2.57,6.35,2.21-6.35-1.12-.59v-2.04l1.62-.77h2.86l1.62.77v2.04l-1.24.59-5.14,13.82c-1.51,4.28-3.34,5.05-5.82,5.05-3.43,0-4.87-2.16-4.87-4.16s1.24-3.25,2.83-3.25c1.24,0,2.19.71,2.19,1.98,0,1.48-1.45,1.54-1.45,2.07,0,.38.24.74,1.09.74,1.15,0,1.8-.62,2.16-1.71l.41-1.21-5.82-13.32Z"/><g id="Travel_journal"><path class="cls-3" d="M129.65,12.43c0,.24.19.43.43.43.07,0,.13-.02.19-.05l.77-.38.77.38c.21.11.47.02.58-.19.03-.06.05-.13.05-.19v-1.59h-2.79v1.59Z"/><path class="cls-3" d="M132.49,1.4h-5.34v8.57h5.34c.77,0,1.4-.63,1.4-1.4V2.8c0-.77-.63-1.4-1.4-1.4ZM131.48,6.12h-1.93c-.24,0-.43-.2-.43-.43,0-.24.19-.43.43-.43h1.93c.24,0,.43.19.43.43,0,.24-.19.43-.43.43,0,0,0,0,0,0ZM131.48,4.68h-1.93c-.24,0-.43-.2-.43-.43,0-.24.19-.43.43-.43h1.93c.24,0,.43.19.43.43,0,.24-.19.43-.43.43,0,0,0,0,0,0Z"/><path class="cls-3" d="M124.83,1.84v7.7c0,.24.19.43.43.43h1.01V1.4h-1.01c-.24,0-.43.19-.43.43h0Z"/></g><path class="cls-1" d="M4.22,1.61c-1.16.84-1.24,2.79-.52,3.4,1.09.94,4.51-.8,4.44-2.03-.06-.98-2.41-2.46-3.91-1.37Z"/><path class="cls-3" d="M6.15,2.42c-.58.55-.66,1.79-.33,2.16.5.56,2.19-.61,2.18-1.38,0-.62-1.1-1.49-1.85-.77Z"/><path class="cls-1" d="M8.99.51c-1.16.84-1.24,2.79-.52,3.4,1.09.94,4.51-.8,4.44-2.03-.06-.98-2.41-2.46-3.91-1.37Z"/><path class="cls-3" d="M10.96,1.28c-.61.48-.67,1.59-.3,1.93.57.52,2.38-.48,2.35-1.18-.03-.56-1.26-1.38-2.05-.75Z"/></svg>